<svg width="25" height="24" viewBox="0 0 25 24" fill="none" xmlns="http://www.w3.org/2000/svg">
<path d="M21.5928 17.1449C21.2601 17.9135 20.8663 18.6211 20.41 19.2715C19.7881 20.1583 19.2788 20.7721 18.8864 21.113C18.278 21.6724 17.6262 21.959 16.9282 21.9753C16.4271 21.9753 15.8228 21.8327 15.1193 21.5434C14.4136 21.2555 13.765 21.113 13.172 21.113C12.55 21.113 11.883 21.2555 11.1695 21.5434C10.4549 21.8327 9.87928 21.9834 9.43916 21.9984C8.76981 22.0269 8.10264 21.7322 7.43668 21.113C7.01164 20.7422 6.47999 20.1067 5.84309 19.2063C5.15976 18.2449 4.59796 17.13 4.15784 15.8589C3.68648 14.486 3.4502 13.1565 3.4502 11.8694C3.4502 10.3951 3.76878 9.12345 4.40689 8.05784C4.9084 7.20191 5.57557 6.52672 6.41059 6.03105C7.24562 5.53539 8.14786 5.2828 9.11949 5.26664C9.65114 5.26664 10.3483 5.43109 11.2147 5.75429C12.0787 6.07858 12.6334 6.24303 12.8766 6.24303C13.0585 6.24303 13.6747 6.05074 14.7194 5.66738C15.7073 5.31186 16.5411 5.16466 17.2242 5.22264C19.0751 5.37202 20.4657 6.10167 21.3905 7.41619C19.7351 8.4192 18.9162 9.82403 18.9325 11.6262C18.9475 13.03 19.4567 14.1981 20.4576 15.1256C20.9111 15.5561 21.4176 15.8888 21.9812 16.1251C21.859 16.4795 21.73 16.819 21.5928 17.1449ZM17.3478 0.440369C17.3478 1.54062 16.9458 2.56792 16.1446 3.51878C15.1777 4.64917 14.0082 5.30236 12.74 5.19929C12.7238 5.06729 12.7145 4.92837 12.7145 4.78239C12.7145 3.72615 13.1743 2.59576 13.9908 1.67152C14.3985 1.20356 14.917 0.814453 15.5457 0.504058C16.1731 0.198295 16.7666 0.0292007 17.3247 0.000244141C17.341 0.147331 17.3478 0.294426 17.3478 0.440355V0.440369Z" fill="black"/>
</svg>
