<svg width="153" height="75" viewBox="0 0 153 75" fill="none" xmlns="http://www.w3.org/2000/svg">
<path d="M0 74.9999C8.7826e-07 65.9387 1.97873 56.9662 5.82322 48.5947C9.6677 40.2233 15.3027 32.6168 22.4063 26.2095C29.51 19.8023 37.9433 14.7198 47.2247 11.2522C56.5061 7.78465 66.4539 5.99991 76.5 5.99991C86.5461 5.99991 96.4939 7.78465 105.775 11.2522C115.057 14.7198 123.49 19.8023 130.594 26.2095C137.697 32.6168 143.332 40.2233 147.177 48.5948C151.021 56.9662 153 65.9387 153 74.9999H145.35C145.35 66.8448 143.569 58.7696 140.109 51.2353C136.649 43.701 131.578 36.8551 125.184 31.0886C118.791 25.3221 111.201 20.7478 102.848 17.627C94.4945 14.5062 85.5415 12.8999 76.5 12.8999C67.4585 12.8999 58.5055 14.5062 50.1523 17.627C41.799 20.7478 34.209 25.3221 27.8157 31.0886C21.4224 36.8551 16.3509 43.7009 12.8909 51.2353C9.43086 58.7696 7.65 66.8448 7.65 74.9999H0Z" fill="white"/>
<path d="M0 74.9999C1.43823e-06 58.3335 5.30342 42.111 15.1234 28.7394C24.9434 15.3678 38.7568 5.55942 54.5141 0.769531L61.1099 23.0386C50.0797 26.3916 40.4104 33.2574 33.5364 42.6176C26.6624 51.9777 22.95 63.3334 22.95 74.9999L0 74.9999Z" fill="#23A36D"/>
</svg>
