<svg width="12" height="14" viewBox="0 0 12 14" fill="none" xmlns="http://www.w3.org/2000/svg">
<path d="M3.33335 2.66683H2.80015C2.05341 2.66683 1.67977 2.66683 1.39455 2.81215C1.14367 2.93999 0.939843 3.14381 0.812012 3.39469C0.666687 3.67991 0.666687 4.05356 0.666687 4.80029V5.3335M3.33335 2.66683H8.66669M3.33335 2.66683V1.3335M8.66669 2.66683H9.20015C9.94689 2.66683 10.3197 2.66683 10.6049 2.81215C10.8558 2.93999 11.0603 3.14381 11.1882 3.39469C11.3334 3.67963 11.3334 4.05283 11.3334 4.7981V5.3335M8.66669 2.66683V1.3335M0.666687 5.3335V11.2003C0.666687 11.947 0.666687 12.3202 0.812012 12.6054C0.939843 12.8563 1.14367 13.0605 1.39455 13.1883C1.67949 13.3335 2.05268 13.3335 2.79796 13.3335H9.20208C9.94736 13.3335 10.32 13.3335 10.6049 13.1883C10.8558 13.0605 11.0603 12.8563 11.1882 12.6054C11.3334 12.3205 11.3334 11.9478 11.3334 11.2025V5.3335M0.666687 5.3335H11.3334M8.66669 10.6668H8.66802L8.66799 10.6682L8.66669 10.6681V10.6668ZM6.00002 10.6668H6.00135L6.00132 10.6682L6.00002 10.6681V10.6668ZM3.33335 10.6668H3.33469L3.33466 10.6682L3.33335 10.6681V10.6668ZM8.66799 8.00016V8.0015L8.66669 8.00147V8.00016H8.66799ZM6.00002 8.00016H6.00135L6.00132 8.0015L6.00002 8.00147V8.00016ZM3.33335 8.00016H3.33469L3.33466 8.0015L3.33335 8.00147V8.00016Z" stroke="#758195" stroke-linecap="round" stroke-linejoin="round"/>
</svg>
