<svg width="14" height="15" viewBox="0 0 14 15" fill="none" xmlns="http://www.w3.org/2000/svg">
<path d="M1.66675 5.33337H12.3334M1.66675 5.33337V11.2002C1.66675 11.9469 1.66675 12.3201 1.81207 12.6053C1.9399 12.8562 2.14373 13.0604 2.39461 13.1882C2.67955 13.3334 3.05274 13.3334 3.79802 13.3334H10.2021C10.9474 13.3334 11.3201 13.3334 11.605 13.1882C11.8559 13.0604 12.0604 12.8562 12.1882 12.6053C12.3334 12.3204 12.3334 11.9477 12.3334 11.2024V5.33337M1.66675 5.33337V4.80017C1.66675 4.05343 1.66675 3.67979 1.81207 3.39457C1.9399 3.14369 2.14373 2.93986 2.39461 2.81203C2.67983 2.66671 3.05347 2.66671 3.80021 2.66671H4.33341M12.3334 5.33337V4.79798C12.3334 4.0527 12.3334 3.67951 12.1882 3.39457C12.0604 3.14369 11.8559 2.93986 11.605 2.81203C11.3198 2.66671 10.9469 2.66671 10.2002 2.66671H9.66675M9.66675 1.33337V2.66671M9.66675 2.66671H4.33341M4.33341 1.33337V2.66671" stroke="#111111" stroke-width="2" stroke-linecap="round" stroke-linejoin="round"/>
</svg>
