<svg width="36" height="36" viewBox="0 0 36 36" fill="none" xmlns="http://www.w3.org/2000/svg">
<path d="M0 4C0 1.79086 1.79086 0 4 0H32C34.2091 0 36 1.79086 36 4V32C36 34.2091 34.2091 36 32 36H4C1.79086 36 0 34.2091 0 32V4Z" fill="#1D9AAA"/>
<path d="M15.9187 11.5477C15.6656 10.9149 15.0528 10.5 14.3713 10.5H12.0789C11.2069 10.5 10.5 11.2067 10.5 12.0788C10.5 19.491 16.509 25.5 23.9212 25.5C24.7933 25.5 25.5 24.793 25.5 23.921L25.5004 21.6283C25.5004 20.9468 25.0856 20.334 24.4528 20.0809L22.2558 19.2024C21.6874 18.9751 21.0402 19.0774 20.57 19.4693L20.0029 19.9422C19.3407 20.4941 18.3664 20.4502 17.7568 19.8407L16.1602 18.2425C15.5507 17.633 15.5056 16.6594 16.0575 15.9972L16.5303 15.4302C16.9222 14.96 17.0254 14.3126 16.7981 13.7442L15.9187 11.5477Z" stroke="white" stroke-linecap="round" stroke-linejoin="round"/>
</svg>
