<svg width="18" height="14" viewBox="0 0 18 14" fill="none" xmlns="http://www.w3.org/2000/svg">
<path d="M2.33333 1.99996L7.42303 5.84351L7.42473 5.84492C7.98987 6.25936 8.27261 6.46671 8.5823 6.5468C8.85602 6.6176 9.14376 6.6176 9.41748 6.5468C9.72744 6.46664 10.011 6.25869 10.5771 5.84351C10.5771 5.84351 13.8417 3.33824 15.6667 1.99996M1.5 10.1668V3.83346C1.5 2.90003 1.5 2.43298 1.68166 2.07646C1.84144 1.76285 2.09623 1.50807 2.40983 1.34828C2.76635 1.16663 3.23341 1.16663 4.16683 1.16663H13.8335C14.7669 1.16663 15.233 1.16663 15.5895 1.34828C15.9031 1.50807 16.1587 1.76285 16.3185 2.07646C16.5 2.43263 16.5 2.89912 16.5 3.83072V10.1696C16.5 11.1012 16.5 11.567 16.3185 11.9232C16.1587 12.2368 15.9031 12.492 15.5895 12.6518C15.2333 12.8333 14.7675 12.8333 13.8359 12.8333H4.16409C3.23249 12.8333 2.766 12.8333 2.40983 12.6518C2.09623 12.492 1.84144 12.2368 1.68166 11.9232C1.5 11.5667 1.5 11.1002 1.5 10.1668Z" stroke="#758195" stroke-width="2" stroke-linecap="round" stroke-linejoin="round"/>
</svg>
