<svg width="16" height="16" viewBox="0 0 16 16" fill="none" xmlns="http://www.w3.org/2000/svg">
<g clip-path="url(#clip0_65_3426)">
<path d="M2.66668 12.0001H6.33334V12.8334C6.33334 13.3196 6.14019 13.7859 5.79637 14.1297C5.45256 14.4736 4.98624 14.6667 4.50001 14.6667C4.01378 14.6667 3.54746 14.4736 3.20365 14.1297C2.85983 13.7859 2.66668 13.3196 2.66668 12.8334V12.0001ZM5.37201 9.33339L5.40201 9.24539C5.91334 7.84139 6.00001 7.58005 6.00001 7.33339C6.00001 6.83339 5.86468 6.23805 5.64801 5.81805C5.48668 5.50472 5.37334 5.41339 5.33334 5.41339C4.48001 5.41339 3.66668 6.32272 3.66668 7.33339C3.66668 7.97272 3.71668 8.51539 3.81801 9.17205L3.84334 9.33339H5.37201ZM5.33334 4.08005C6.66668 4.08005 7.33334 6.00005 7.33334 7.33339C7.33334 8.00005 7.00001 8.66672 6.66668 9.66672L6.33334 10.6667H2.66668C2.66668 10.0001 2.33334 9.00005 2.33334 7.33339C2.33334 5.66672 3.66534 4.08005 5.33334 4.08005ZM13.3693 9.39872L13.2247 10.2194C13.1402 10.6983 12.869 11.124 12.4707 11.4029C12.0724 11.6819 11.5796 11.7911 11.1007 11.7067C10.6218 11.6223 10.196 11.3511 9.91712 10.9528C9.63819 10.5544 9.52892 10.0616 9.61334 9.58272L9.75868 8.76272L13.3693 9.39872ZM12.6693 6.56805C12.7793 6.23472 12.87 5.97139 12.8713 5.96805C13.006 5.52939 13.112 5.09939 13.1947 4.62939C13.37 3.63472 12.7267 2.59805 11.8867 2.44939C11.8473 2.44272 11.72 2.51272 11.5067 2.79272C11.22 3.16939 10.984 3.73272 10.8967 4.22405C10.858 4.44405 10.864 4.49405 11.0767 5.73272C11.1067 5.90339 11.1313 6.05672 11.154 6.21072L11.1673 6.30272L12.6693 6.56805ZM12.1187 1.13672C13.7613 1.42605 14.7973 3.21939 14.508 4.86072C14.2187 6.50272 13.7167 7.42939 13.6013 8.08605L9.99001 7.44939L9.83534 6.40672C9.68068 5.36405 9.46868 4.64939 9.58401 3.99339C9.81534 2.68005 10.8053 0.905386 12.1187 1.13672Z" fill="#D78EBA"/>
</g>
<defs>
<clipPath id="clip0_65_3426">
<rect width="16" height="16" fill="white"/>
</clipPath>
</defs>
</svg>
