<svg width="25" height="24" viewBox="0 0 25 24" fill="none" xmlns="http://www.w3.org/2000/svg">
<g clip-path="url(#clip0_143_1576)">
<path d="M24.0163 12.2765C24.0163 11.4608 23.9501 10.6406 23.809 9.83813H12.4902V14.4591H18.972C18.703 15.9495 17.8388 17.2679 16.5733 18.1056V21.104H20.4403C22.7111 19.014 24.0163 15.9274 24.0163 12.2765Z" fill="#4285F4"/>
<path d="M12.4901 24.0008C15.7266 24.0008 18.4559 22.9382 20.4445 21.1039L16.5776 18.1055C15.5017 18.8375 14.1127 19.252 12.4945 19.252C9.36388 19.252 6.70946 17.1399 5.75705 14.3003H1.7666V17.3912C3.80371 21.4434 7.9529 24.0008 12.4901 24.0008Z" fill="#34A853"/>
<path d="M5.75277 14.3002C5.25011 12.8099 5.25011 11.196 5.75277 9.70569V6.61475H1.76674C0.0647337 10.0055 0.0647337 14.0004 1.76674 17.3912L5.75277 14.3002Z" fill="#FBBC04"/>
<path d="M12.4901 4.74966C14.2009 4.7232 15.8544 5.36697 17.0934 6.54867L20.5195 3.12262C18.3501 1.0855 15.4708 -0.034466 12.4901 0.000808666C7.9529 0.000808666 3.80371 2.55822 1.7666 6.61481L5.75264 9.70575C6.70064 6.86173 9.35947 4.74966 12.4901 4.74966Z" fill="#EA4335"/>
</g>
<defs>
<clipPath id="clip0_143_1576">
<rect width="24" height="24" fill="white" transform="translate(0.25)"/>
</clipPath>
</defs>
</svg>
