<svg width="15" height="16" viewBox="0 0 15 16" fill="none" xmlns="http://www.w3.org/2000/svg">
<path d="M14.9662 7.32352C14.9189 6.82638 14.8323 6.34123 14.6557 5.87265C14.4779 5.40064 14.2346 4.94921 13.9736 4.51777C13.7201 4.10005 13.4477 3.69148 13.144 3.30747C12.8426 2.92804 12.5269 2.56118 12.1828 2.21889C12.0238 2.06346 11.8586 1.91431 11.6899 1.76974C11.4825 1.59374 11.2745 1.41488 11.0529 1.25716C10.6836 0.994299 10.2871 0.758867 9.87966 0.559436C9.65972 0.452006 9.43693 0.349147 9.20959 0.260575C8.96286 0.163431 8.71215 0.0868583 8.45632 0.0165717C8.41643 0.00514295 8.37541 0 8.33495 0C8.12926 0 7.93667 0.138288 7.87969 0.345147C7.83695 0.500578 7.88709 0.659437 7.98738 0.775439C8.11273 1.08744 8.24207 1.3983 8.36914 1.71145C8.50532 2.04746 8.56971 2.40117 8.62612 2.75832C8.67056 3.1229 8.69791 3.4869 8.70931 3.85434C8.72241 4.26577 8.71956 4.67435 8.68025 5.0835C8.6415 5.32064 8.58851 5.55207 8.51387 5.78179C8.43865 6.01551 8.34863 6.24408 8.25461 6.47151C8.15034 6.70352 8.03923 6.92866 7.91501 7.15267C7.79536 7.36753 7.64607 7.56353 7.49735 7.75953C7.28995 8.02525 7.07286 8.28125 6.85918 8.54068C6.63241 8.81497 6.38284 9.05783 6.11047 9.28584C5.83868 9.49727 5.56461 9.7087 5.278 9.90013C4.96747 10.107 4.63414 10.2801 4.29568 10.4367C3.87346 10.6013 3.43016 10.6881 2.99712 10.8179C2.77091 10.883 2.54584 10.9419 2.31507 10.9904C2.10368 11.035 1.89172 11.0841 1.67804 11.1179C1.47235 11.1379 1.26551 11.151 1.05868 11.1584C0.815376 11.1653 0.576632 11.1573 0.336748 11.2001C0.13846 11.2361 0 11.4533 0 11.6442C0 11.699 0.0125355 11.7527 0.0319085 11.8042C0.0296293 11.811 0.0245013 11.8162 0.0227919 11.823C0.0011397 11.9042 0.0011397 11.987 0.0227919 12.0682C0.0450139 12.1459 0.0848995 12.2139 0.140739 12.271C0.281478 12.4436 0.432474 12.6087 0.576632 12.7779C0.71965 12.947 0.866087 13.111 1.02563 13.2647C1.36466 13.5945 1.71223 13.9253 2.09171 14.2076C2.27405 14.343 2.46664 14.4642 2.66037 14.5836C2.8484 14.6985 3.0296 14.8265 3.21763 14.9436C3.41136 15.0642 3.60623 15.1865 3.80509 15.2985C4.02104 15.4202 4.25978 15.5139 4.49283 15.5973C4.69795 15.6705 4.90707 15.7351 5.11675 15.7974C5.37373 15.8751 5.6347 15.9351 5.90136 15.9642C6.35947 16.0151 6.82671 16.0048 7.28482 15.9762C7.77541 15.9471 8.26544 15.8905 8.74406 15.7711C8.96571 15.7156 9.1885 15.6591 9.4073 15.5916C9.64833 15.5162 9.88137 15.4168 10.1133 15.3173C10.5195 15.1425 10.9116 14.9219 11.2933 14.6996C11.7121 14.4545 12.0757 14.1128 12.4403 13.795C12.6113 13.6448 12.785 13.4939 12.9412 13.3276C13.1212 13.1379 13.2882 12.9339 13.4432 12.7225C13.585 12.5282 13.7212 12.3293 13.846 12.1242C13.9617 11.9339 14.0563 11.7333 14.148 11.5304C14.3497 11.0784 14.5298 10.6144 14.6825 10.1453C14.8357 9.67213 14.9155 9.18012 14.9662 8.6864C15.0135 8.23268 15.009 7.77839 14.9662 7.32352ZM14.0078 8.90355C13.956 9.24355 13.8876 9.58241 13.7839 9.90927C13.6694 10.271 13.5343 10.6264 13.3913 10.9784C13.291 11.2116 13.1862 11.443 13.0563 11.6619C12.9087 11.9104 12.748 12.1499 12.5759 12.3824C12.3742 12.6305 12.156 12.8556 11.9172 13.0676C11.6739 13.283 11.4312 13.4996 11.1788 13.7048C10.9298 13.8825 10.6654 14.0333 10.3948 14.1779C10.1617 14.3042 9.92354 14.4259 9.67967 14.5316C9.3754 14.6562 9.06543 14.7522 8.74634 14.8339C8.43979 14.9139 8.13552 14.9848 7.82328 15.0311C7.51673 15.0665 7.20961 15.0871 6.90135 15.0968C6.58055 15.1076 6.25976 15.1088 5.94125 15.0773C5.6894 15.0311 5.4478 14.9659 5.20279 14.8888C4.97886 14.8179 4.75835 14.7442 4.54126 14.6556C4.19654 14.4962 3.8746 14.2968 3.55495 14.0905C3.22788 13.8802 2.89057 13.6813 2.57832 13.4487C2.26037 13.1899 1.96066 12.9065 1.66665 12.6225C1.48773 12.4504 1.32249 12.2647 1.16181 12.075C1.37263 12.0619 1.5846 12.0447 1.79257 12.0139C2.01308 11.9813 2.23074 11.9236 2.44898 11.8762C2.66379 11.8299 2.87803 11.7824 3.09056 11.7196C3.32589 11.6504 3.56121 11.5819 3.8011 11.5253C4.01591 11.4744 4.22901 11.4076 4.43471 11.3287C4.66662 11.2407 4.89054 11.1276 5.10821 11.0104C5.32758 10.8927 5.54068 10.7699 5.74752 10.6299C5.93897 10.5001 6.12358 10.359 6.30933 10.2201C6.50534 10.0721 6.70249 9.92242 6.88596 9.75613C7.07172 9.58927 7.24607 9.41384 7.40961 9.22298C7.55262 9.05669 7.69222 8.88755 7.83182 8.71954C8.00162 8.51554 8.16173 8.30182 8.31957 8.08753C8.45233 7.90925 8.57654 7.7241 8.68651 7.53096C8.93665 7.09152 9.13323 6.62752 9.31044 6.15608C9.38907 5.94694 9.45916 5.73036 9.50075 5.5115C9.5526 5.25036 9.57938 4.98635 9.59875 4.72121C9.61585 4.48406 9.61357 4.24577 9.61129 4.00748C9.60901 3.77605 9.60331 3.54348 9.5885 3.31204C9.55716 2.82518 9.48252 2.33603 9.38223 1.85888C9.33722 1.64516 9.25061 1.44459 9.17255 1.24173C9.67853 1.47145 10.1606 1.74574 10.6113 2.07146C10.9514 2.34117 11.2836 2.62118 11.5908 2.92918C11.9024 3.24404 12.1856 3.58633 12.4597 3.93548C12.9412 4.58063 13.3594 5.26521 13.6956 5.99722C13.7617 6.16294 13.8198 6.33037 13.8739 6.50066C13.936 6.6978 13.9696 6.90523 14.0016 7.11038C14.0363 7.40581 14.0642 7.69953 14.0642 7.99725C14.0654 8.30125 14.0443 8.6024 14.0078 8.90355ZM13.2876 8.30468C13.2967 8.55783 13.3013 8.80583 13.2796 9.05783C13.2603 9.30184 13.2164 9.55384 13.1617 9.7927C13.1087 10.0196 13.0369 10.2401 12.9526 10.4567C12.8637 10.6881 12.7657 10.9253 12.6489 11.143C12.5463 11.3339 12.4318 11.5167 12.3133 11.6984C12.1725 11.9162 12.0249 12.1276 11.8597 12.3276C11.56 12.6887 11.1845 12.9905 10.8073 13.2659C10.4381 13.5356 10.025 13.7208 9.60046 13.8836C9.49904 13.923 9.36628 13.8939 9.27625 13.8419C9.18281 13.7865 9.11215 13.695 9.08366 13.5905C9.05346 13.4819 9.06885 13.3636 9.12526 13.2653C9.18508 13.1647 9.27055 13.1127 9.37653 13.0722C9.43408 13.0499 9.49049 13.0293 9.54747 13.007C9.84149 12.8767 10.1224 12.7225 10.3839 12.5345C10.6979 12.2807 10.9936 12.011 11.2489 11.6979C11.5326 11.3019 11.7748 10.8693 11.9708 10.4224C12.0546 10.2196 12.1326 10.015 12.1959 9.80413C12.2523 9.61441 12.2859 9.42184 12.3138 9.22698C12.3286 9.08241 12.3435 8.9384 12.3423 8.79383C12.3412 8.6304 12.3332 8.46754 12.3264 8.30525C12.3161 8.04239 12.5537 7.82182 12.8073 7.82182C13.0756 7.82125 13.2785 8.04125 13.2876 8.30468Z" fill="#1D7AFC"/>
</svg>
