<svg width="155" height="96" viewBox="0 0 155 96" fill="none" xmlns="http://www.w3.org/2000/svg">
<rect width="155" height="96" fill="#D9D9D9"/>
<path d="M-9 -61C-9 -74.2548 1.74517 -85 15 -85H140C153.255 -85 164 -74.2548 164 -61V91C164 104.255 153.255 115 140 115H15C1.74517 115 -9 104.255 -9 91V-61Z" fill="#362C62"/>
<path d="M1 47.6684C5.04766 17.042 16.6644 -29.5471 30.7501 29.1069C44.8358 87.761 42.5 47 56.8572 29.1069C62.5 25.5 76.7715 29.2926 78.7143 56.021C80.6572 82.7495 90.7738 52.2836 103 38.3877C109.5 31 124.736 43.9561 129.107 62.5175C133.479 81.0789 147.524 91.9064 154 95" stroke="#8270DB" stroke-width="2"/>
<path d="M2 79.9385C6.04766 49.3122 20.4143 -5.71539 34.5 52.9387C48.5857 111.593 39.5 15.4389 52 9.43901C66 4.43892 55.1168 43.3538 71 64.9387C90.5 91.4389 87.941 31.714 105.5 25.8608C114.5 22.8608 119.91 54.5366 129.607 70.9562C139 86.8608 152.5 92.4395 154.5 103.439" stroke="white" stroke-width="2"/>
</svg>
