<svg width="18" height="16" viewBox="0 0 18 16" fill="none" xmlns="http://www.w3.org/2000/svg">
<path d="M9 2.74037L8.54757 3.17864C8.66595 3.30243 8.82929 3.37237 9 3.37237C9.17071 3.37237 9.33405 3.30243 9.45243 3.17864L9 2.74037ZM1.17767 9.39391C1.36095 9.69019 1.74819 9.78086 2.04257 9.5964C2.33696 9.41194 2.42703 9.02212 2.24375 8.72584L1.17767 9.39391ZM4.42021 11.3956C4.1747 11.1491 3.77714 11.1495 3.53221 11.3967C3.28729 11.6437 3.28777 12.0439 3.53328 12.2904L4.42021 11.3956ZM1.25581 5.80471C1.25581 3.44281 2.30837 1.97731 3.62445 1.47343C4.94411 0.968183 6.78248 1.33278 8.54757 3.17864L9.45243 2.3021C7.45024 0.20835 5.10254 -0.444836 3.17797 0.292018C1.24984 1.03023 0 3.06669 0 5.80471H1.25581ZM11.9324 14.5371C13.1818 13.5457 14.6794 12.2166 15.8702 10.7316C17.0478 9.26312 18 7.55057 18 5.80467H16.7442C16.7442 7.11163 16.0139 8.53986 14.893 9.93768C13.7855 11.3188 12.3688 12.5812 11.155 13.5445L11.9324 14.5371ZM18 5.80467C18 3.06669 16.7501 1.03022 14.822 0.29201C12.8975 -0.444827 10.5498 0.20835 8.54757 2.3021L9.45243 3.17864C11.2175 1.33278 13.0559 0.968183 14.3756 1.47343C15.6916 1.9773 16.7442 3.4428 16.7442 5.80467H18ZM6.06761 14.537C7.13446 15.3836 7.86985 16 9 16V14.736C8.38825 14.736 8.00849 14.4676 6.84507 13.5445L6.06761 14.537ZM11.155 13.5445C9.99151 14.4676 9.61175 14.736 9 14.736V16C10.1301 16 10.8656 15.3836 11.9324 14.5371L11.155 13.5445ZM2.24375 8.72584C1.61919 7.71616 1.25581 6.7267 1.25581 5.80471H0C0 7.0518 0.486034 8.27577 1.17767 9.39391L2.24375 8.72584ZM6.84507 13.5445C6.07737 12.9353 5.22496 12.2036 4.42021 11.3956L3.53328 12.2904C4.38151 13.1422 5.2729 13.9065 6.06761 14.537L6.84507 13.5445Z" fill="#23A36D"/>
</svg>
