<svg width="19" height="16" viewBox="0 0 19 16" fill="none" xmlns="http://www.w3.org/2000/svg">
<path d="M10.8333 0.5C6.69168 0.5 3.33334 3.85833 3.33334 8H0.833344L4.07501 11.2417L4.13334 11.3583L7.50001 8H5.00001C5.00001 4.775 7.60834 2.16667 10.8333 2.16667C14.0583 2.16667 16.6667 4.775 16.6667 8C16.6667 11.225 14.0583 13.8333 10.8333 13.8333C9.22501 13.8333 7.76668 13.175 6.71668 12.1167L5.53334 13.3C6.89168 14.6583 8.75834 15.5 10.8333 15.5C14.975 15.5 18.3333 12.1417 18.3333 8C18.3333 3.85833 14.975 0.5 10.8333 0.5ZM10 4.66667V8.83333L13.5417 10.9333L14.1833 9.86667L11.25 8.125V4.66667H10Z" fill="#111111"/>
</svg>
