<svg width="14" height="18" viewBox="0 0 14 18" fill="none" xmlns="http://www.w3.org/2000/svg">
<path d="M1.16669 7.26904C1.16669 11.3122 4.70375 14.6558 6.26934 15.9377C6.49341 16.1211 6.60678 16.214 6.77394 16.261C6.90411 16.2977 7.09568 16.2977 7.22585 16.261C7.39333 16.2139 7.50591 16.122 7.73081 15.9378C9.29641 14.6559 12.8333 11.3126 12.8333 7.26941C12.8333 5.73932 12.2187 4.27171 11.1248 3.18977C10.0308 2.10783 8.54718 1.5 7.00009 1.5C5.45299 1.5 3.96919 2.10792 2.87523 3.18986C1.78127 4.2718 1.16669 5.73895 1.16669 7.26904Z" stroke="#1D9AAA" stroke-width="2" stroke-linecap="round" stroke-linejoin="round"/>
<path d="M5.33335 6.5C5.33335 7.42047 6.07955 8.16667 7.00002 8.16667C7.92049 8.16667 8.66669 7.42047 8.66669 6.5C8.66669 5.57953 7.92049 4.83333 7.00002 4.83333C6.07955 4.83333 5.33335 5.57953 5.33335 6.5Z" stroke="#1D9AAA" stroke-width="2" stroke-linecap="round" stroke-linejoin="round"/>
</svg>
