<svg width="25" height="24" viewBox="0 0 25 24" fill="none" xmlns="http://www.w3.org/2000/svg">
<path d="M9.5 14.917V15.5C9.5 16.6935 9.97411 17.8381 10.818 18.682C11.6619 19.5259 12.8065 20 14 20C15.1935 20 16.3381 19.5259 17.182 18.682C18.0259 17.8381 18.5 16.6935 18.5 15.5V13.83C17.8325 13.5941 17.2699 13.1298 16.9116 12.5192C16.5534 11.9086 16.4225 11.191 16.5422 10.4932C16.6619 9.79545 17.0244 9.16246 17.5656 8.70613C18.1069 8.2498 18.792 7.99951 19.5 7.99951C20.208 7.99951 20.8931 8.2498 21.4344 8.70613C21.9756 9.16246 22.3381 9.79545 22.4578 10.4932C22.5775 11.191 22.4466 11.9086 22.0884 12.5192C21.7301 13.1298 21.1675 13.5941 20.5 13.83V15.5C20.5 17.2239 19.8152 18.8772 18.5962 20.0962C17.3772 21.3152 15.7239 22 14 22C12.2761 22 10.6228 21.3152 9.4038 20.0962C8.18482 18.8772 7.5 17.2239 7.5 15.5V14.917C6.10193 14.6803 4.83281 13.9562 3.9176 12.8732C3.00239 11.7901 2.50018 10.418 2.5 9L2.5 4C2.5 3.46957 2.71071 2.96086 3.08579 2.58579C3.46086 2.21071 3.96957 2 4.5 2H5.5C5.76522 2 6.01957 2.10536 6.20711 2.29289C6.39464 2.48043 6.5 2.73478 6.5 3C6.5 3.26522 6.39464 3.51957 6.20711 3.70711C6.01957 3.89464 5.76522 4 5.5 4H4.5V9C4.5 10.0609 4.92143 11.0783 5.67157 11.8284C6.42172 12.5786 7.43913 13 8.5 13C9.56086 13 10.5783 12.5786 11.3284 11.8284C12.0786 11.0783 12.5 10.0609 12.5 9V4H11.5C11.2348 4 10.9804 3.89464 10.7929 3.70711C10.6054 3.51957 10.5 3.26522 10.5 3C10.5 2.73478 10.6054 2.48043 10.7929 2.29289C10.9804 2.10536 11.2348 2 11.5 2H12.5C13.0304 2 13.5391 2.21071 13.9142 2.58579C14.2893 2.96086 14.5 3.46957 14.5 4V9C14.4998 10.418 13.9976 11.7901 13.0824 12.8732C12.1672 13.9562 10.8981 14.6803 9.5 14.917ZM19.5 12C19.7652 12 20.0196 11.8946 20.2071 11.7071C20.3946 11.5196 20.5 11.2652 20.5 11C20.5 10.7348 20.3946 10.4804 20.2071 10.2929C20.0196 10.1054 19.7652 10 19.5 10C19.2348 10 18.9804 10.1054 18.7929 10.2929C18.6054 10.4804 18.5 10.7348 18.5 11C18.5 11.2652 18.6054 11.5196 18.7929 11.7071C18.9804 11.8946 19.2348 12 19.5 12Z" fill="black"/>
</svg>
