<svg width="153" height="20" viewBox="0 0 153 20" fill="none" xmlns="http://www.w3.org/2000/svg">
<path d="M8 20C3.58172 20 0 16.4183 0 12L0 8C0 3.58172 3.58172 0 8 0L66 0C70.4183 0 74 3.58172 74 8V12C74 16.4183 70.4183 20 66 20L8 20Z" fill="white"/>
<path d="M84.5 20C80.0817 20 76.5 16.4183 76.5 12V8C76.5 3.58172 80.0817 0 84.5 0L108.5 0C112.918 0 116.5 3.58172 116.5 8V12C116.5 16.4183 112.918 20 108.5 20L84.5 20Z" fill="#1D7AFC"/>
<path d="M127 20C122.582 20 119 16.4183 119 12V8C119 3.58172 122.582 0 127 0H145C149.418 0 153 3.58172 153 8V12C153 16.4183 149.418 20 145 20H127Z" fill="#1D7AFC"/>
</svg>
