<svg width="152" height="95" viewBox="0 0 152 95" fill="none" xmlns="http://www.w3.org/2000/svg">
<path d="M0 60C0 55.5817 3.58172 52 8 52H12C16.4183 52 20 55.5817 20 60V87C20 91.4183 16.4183 95 12 95H8C3.58172 95 0 91.4183 0 87V60Z" fill="#D78EBA"/>
<path d="M22 21C22 16.5817 25.5817 13 30 13H34C38.4183 13 42 16.5817 42 21V87C42 91.4183 38.4183 95 34 95H30C25.5817 95 22 91.4183 22 87V21Z" fill="#D78EBA"/>
<path d="M44 73C44 68.5817 47.5817 65 52 65H56C60.4183 65 64 68.5817 64 73V87C64 91.4183 60.4183 95 56 95H52C47.5817 95 44 91.4183 44 87V73Z" fill="#D78EBA"/>
<path d="M66 8C66 3.58172 69.5817 0 74 0H78C82.4183 0 86 3.58172 86 8V87C86 91.4183 82.4183 95 78 95H74C69.5817 95 66 91.4183 66 87V8Z" fill="white"/>
<path d="M88 29C88 24.5817 91.5817 21 96 21H100C104.418 21 108 24.5817 108 29V87C108 91.4183 104.418 95 100 95H96C91.5817 95 88 91.4183 88 87V29Z" fill="#D78EBA"/>
<path d="M110 69C110 64.5817 113.582 61 118 61H122C126.418 61 130 64.5817 130 69V87C130 91.4183 126.418 95 122 95H118C113.582 95 110 91.4183 110 87V69Z" fill="#D78EBA"/>
<path d="M132 54C132 49.5817 135.582 46 140 46H144C148.418 46 152 49.5817 152 54V87C152 91.4183 148.418 95 144 95H140C135.582 95 132 91.4183 132 87V54Z" fill="#D78EBA"/>
</svg>
